<svg width="18" height="17" viewBox="0 0 18 17" fill="none" xmlns="http://www.w3.org/2000/svg">
<path d="M16.8257 15.7098L12.757 11.6411C13.9157 10.2263 14.4861 8.42007 14.3502 6.59634C14.2142 4.77262 13.3823 3.07096 12.0266 1.84353C10.671 0.616093 8.89527 -0.0431611 7.06705 0.00219419C5.23882 0.0475495 3.49801 0.794042 2.20487 2.08719C0.911718 3.38034 0.165225 5.12115 0.11987 6.94937C0.0745147 8.7776 0.733769 10.5533 1.9612 11.909C3.18864 13.2646 4.89029 14.0965 6.71402 14.2325C8.53774 14.3684 10.3439 13.798 11.7588 12.6393L15.8275 16.7046C15.8928 16.7701 15.9704 16.8222 16.0558 16.8577C16.1412 16.8933 16.2328 16.9117 16.3254 16.9118C16.4179 16.912 16.5096 16.8939 16.5951 16.8586C16.6807 16.8234 16.7584 16.7716 16.824 16.7063C16.8895 16.641 16.9415 16.5634 16.9771 16.4779C17.0127 16.3925 17.031 16.3009 17.0312 16.2084C17.0314 16.1159 17.0133 16.0242 16.978 15.9386C16.9428 15.8531 16.891 15.7753 16.8257 15.7098ZM7.24158 12.8326C6.11146 12.8322 5.00684 12.4967 4.0674 11.8685C3.12796 11.2403 2.39588 10.3476 1.96375 9.30341C1.53161 8.25918 1.41883 7.11025 1.63965 6.00192C1.86047 4.89358 2.40499 3.87562 3.20434 3.07674C4.00369 2.27786 5.02199 1.73396 6.13045 1.5138C7.23892 1.29364 8.38778 1.40711 9.43175 1.83987C10.4757 2.27263 11.3679 3.00523 11.9956 3.94505C12.6232 4.88487 12.958 5.98969 12.9578 7.11981C12.956 8.63497 12.353 10.0875 11.2813 11.1586C10.2096 12.2296 8.75674 12.8317 7.24158 12.8326Z" fill="#22215B"/>
</svg>
